<svg width="220" height="280" viewBox="0 0 220 280" xmlns="http://www.w3.org/2000/svg">
  <defs>
    <linearGradient id="stone2" x1="0" y1="0" x2="0" y2="1">
      <stop offset="0%" stop-color="#f6e8cc"/>
      <stop offset="100%" stop-color="#b58b4d"/>
    </linearGradient>
    <linearGradient id="roof2" x1="0" y1="0" x2="0" y2="1">
      <stop offset="0%" stop-color="#ffdd7b"/>
      <stop offset="100%" stop-color="#e6822f"/>
    </linearGradient>
    <radialGradient id="sunCore" cx="0.5" cy="0.5" r="0.5">
      <stop offset="0%" stop-color="#fff8d6"/>
      <stop offset="55%" stop-color="#ffe88f"/>
      <stop offset="100%" stop-color="#ffb449"/>
    </radialGradient>
  </defs>

  <rect x="50" y="86" width="120" height="152" rx="14" fill="url(#stone2)"/>
  <rect x="68" y="108" width="16" height="112" rx="6" fill="#9f783e"/>
  <rect x="136" y="108" width="16" height="112" rx="6" fill="#9f783e"/>
  <polygon points="110,20 30,94 190,94" fill="url(#roof2)"/>

  <circle cx="110" cy="130" r="30" fill="url(#sunCore)"/>
  <g stroke="#ffe49a" stroke-width="6" stroke-linecap="round" opacity="0.9">
    <line x1="110" y1="82" x2="110" y2="64"/>
    <line x1="110" y1="178" x2="110" y2="196"/>
    <line x1="62" y1="130" x2="44" y2="130"/>
    <line x1="158" y1="130" x2="176" y2="130"/>
    <line x1="78" y1="98" x2="66" y2="86"/>
    <line x1="142" y1="98" x2="154" y2="86"/>
    <line x1="78" y1="162" x2="66" y2="174"/>
    <line x1="142" y1="162" x2="154" y2="174"/>
  </g>
</svg>
