<svg width="220" height="280" viewBox="0 0 220 280" xmlns="http://www.w3.org/2000/svg">
  <defs>
    <linearGradient id="stone" x1="0" y1="0" x2="0" y2="1">
      <stop offset="0%" stop-color="#e7edf6"/>
      <stop offset="100%" stop-color="#96a0af"/>
    </linearGradient>
    <linearGradient id="roof" x1="0" y1="0" x2="0" y2="1">
      <stop offset="0%" stop-color="#ffb36b"/>
      <stop offset="100%" stop-color="#cc5c2d"/>
    </linearGradient>
    <radialGradient id="core" cx="0.5" cy="0.5" r="0.5">
      <stop offset="0%" stop-color="#e4feff"/>
      <stop offset="60%" stop-color="#7feeff"/>
      <stop offset="100%" stop-color="#39baff"/>
    </radialGradient>
  </defs>

  <ellipse cx="110" cy="252" rx="76" ry="18" fill="#1b3f36" opacity="0.38"/>
  <rect x="48" y="86" width="124" height="152" rx="16" fill="url(#stone)"/>
  <rect x="66" y="106" width="20" height="114" rx="6" fill="#818b98"/>
  <rect x="134" y="106" width="20" height="114" rx="6" fill="#818b98"/>
  <polygon points="110,18 28,94 192,94" fill="url(#roof)"/>
  <circle cx="110" cy="130" r="30" fill="url(#core)"/>
  <circle cx="110" cy="130" r="16" fill="#f3ffff" opacity="0.82"/>
  <path d="M110 40 L120 72 L154 74 L128 94 L136 126 L110 106 L84 126 L92 94 L66 74 L100 72 Z" fill="#fff4bd" opacity="0.72"/>
</svg>
