<svg width="1200" height="700" viewBox="0 0 1200 700" xmlns="http://www.w3.org/2000/svg">
  <defs>
    <linearGradient id="gSky" x1="0" y1="0" x2="0" y2="1">
      <stop offset="0%" stop-color="#2253d6"/>
      <stop offset="45%" stop-color="#4db6ff"/>
      <stop offset="100%" stop-color="#c6f7ff"/>
    </linearGradient>
    <radialGradient id="gSun" cx="0.83" cy="0.21" r="0.2">
      <stop offset="0%" stop-color="#fff8ba" stop-opacity="1"/>
      <stop offset="70%" stop-color="#ffe486" stop-opacity="0.35"/>
      <stop offset="100%" stop-color="#ffe486" stop-opacity="0"/>
    </radialGradient>
    <linearGradient id="gCloud" x1="0" y1="0" x2="1" y2="1">
      <stop offset="0%" stop-color="#ffffff" stop-opacity="0.88"/>
      <stop offset="100%" stop-color="#f0f7ff" stop-opacity="0.48"/>
    </linearGradient>
  </defs>

  <rect width="1200" height="700" fill="url(#gSky)"/>
  <ellipse cx="995" cy="140" rx="240" ry="170" fill="url(#gSun)"/>

  <g fill="url(#gCloud)">
    <ellipse cx="210" cy="128" rx="90" ry="34"/>
    <ellipse cx="288" cy="138" rx="64" ry="28"/>
    <ellipse cx="246" cy="106" rx="62" ry="24"/>

    <ellipse cx="684" cy="95" rx="110" ry="36"/>
    <ellipse cx="770" cy="105" rx="75" ry="30"/>
    <ellipse cx="730" cy="80" rx="70" ry="25"/>

    <ellipse cx="918" cy="248" rx="96" ry="33"/>
    <ellipse cx="992" cy="256" rx="68" ry="28"/>
    <ellipse cx="956" cy="230" rx="62" ry="22"/>
  </g>

  <g opacity="0.24" fill="#ffffff">
    <circle cx="72" cy="56" r="2"/>
    <circle cx="136" cy="86" r="2"/>
    <circle cx="356" cy="44" r="2"/>
    <circle cx="484" cy="72" r="2"/>
    <circle cx="610" cy="36" r="2"/>
    <circle cx="814" cy="58" r="2"/>
    <circle cx="1048" cy="60" r="2"/>
  </g>
</svg>
